# xmcd
#
# Track frame offsets:
#	150
#	14200
#	27722
#	41599
#	69786
#	82953
#	96748
#	110565
#	124742
#	138247
#	152699
#	165146
#	180403
#	195672
#	209914
#	221769
#	234533
#	248203
#	260903
#	273730
#
# Disc length: 3837 seconds
#
# Revision: 0
# Processed by: cddbd v1.4PL0 Copyright (c) Steve Scherf et al.
# Submitted via: dBpowerAMP V4.0
#
DISCID=2f0efb14
DTITLE=Various Artist - The Essential Country Blues Guitar Collection
DYEAR=1999
DGENRE=Blues
TTITLE0=Kokomo Blues - Scrapper Blackwell
TTITLE1=Down the dirty road - Charlie Patton
TTITLE2=Devil got my woman - Skip James
TTITLE3=Mississippi Blues - Willie Brown
TTITLE4=Away down the alley - Lonnie Johnson
TTITLE5=Matchbox Blues - Blind Lemon Jefferson
TTITLE6=Terraplane Blues - Robert Johnson
TTITLE7=Little Leg Woman - Big Joe Williams
TTITLE8=Future Blues - Willie Brown
TTITLE9=Milk cow blues - Kokomo Arnold
TTITLE10=Cairo Blues - Henry Spaulding
TTITLE11=Gone dead train - King Solomon Hill
TTITLE12=Dark was the night, Cold was the ground - Blind Willie Johnson
TTITLE13=Screamin' and hollerin' the blues - Charlie Patton
TTITLE14=Statesboro Blues - Blind Willie Mctell
TTITLE15=One dime blues - Blind Lemon Jefferson
TTITLE16=Diddie wa diddie - Blind Blake
TTITLE17=Candy man - Mississippi John Hurt
TTITLE18=Long tall mama - Big Bill Broonzy
TTITLE19=South Carolina rag - Willie Walker
EXTD=
EXTT0=
EXTT1=
EXTT2=
EXTT3=
EXTT4=
EXTT5=
EXTT6=
EXTT7=
EXTT8=
EXTT9=
EXTT10=
EXTT11=
EXTT12=
EXTT13=
EXTT14=
EXTT15=
EXTT16=
EXTT17=
EXTT18=
EXTT19=
PLAYORDER=
